<svg width="64" height="29" viewBox="0 0 64 29" fill="none" xmlns="http://www.w3.org/2000/svg">
<path d="M14.5138 28.41C20.9508 28.41 23.2878 25.335 24.0258 22.137H24.4358V28H31.6108V12.994H15.3748V18.652H23.8208C23.4518 20.743 21.8118 21.03 16.1128 21.03C10.5368 21.03 9.01982 19.718 9.01982 14.265C9.01982 8.81199 10.6188 7.5 16.5228 7.5C21.4018 7.5 22.9598 8.484 22.9598 11.026V11.313H31.5698V11.026C31.5698 4.21999 26.0348 0.119995 16.7278 0.119995C6.72382 0.119995 0.819824 5.69599 0.819824 14.265C0.819824 22.834 5.86282 28.41 14.5138 28.41Z" fill="black"/>
<path d="M48.6617 28.41C57.8867 28.41 63.4217 24.023 63.4217 16.684V15.987H54.8117V16.684C54.8117 19.8 53.3357 21.03 48.7847 21.03C43.2087 21.03 41.6917 19.718 41.6917 14.265C41.6917 8.81199 43.2087 7.5 48.7847 7.5C53.3357 7.5 54.8117 8.72999 54.8117 11.846V12.543H63.4217V11.846C63.4217 4.50699 57.8867 0.119995 48.6617 0.119995C39.1087 0.119995 33.4917 5.69599 33.4917 14.265C33.4917 22.834 39.1087 28.41 48.6617 28.41Z" fill="black"/>
</svg>
